<?xml version="1.0" encoding="UTF-8" standalone="no"?>
<!-- Created with Inkscape (http://www.inkscape.org/) -->

<svg
   xmlns:dc="http://purl.org/dc/elements/1.1/"
   xmlns:cc="http://creativecommons.org/ns#"
   xmlns:rdf="http://www.w3.org/1999/02/22-rdf-syntax-ns#"
   xmlns:svg="http://www.w3.org/2000/svg"
   xmlns="http://www.w3.org/2000/svg"
   xmlns:xlink="http://www.w3.org/1999/xlink"
   xmlns:sodipodi="http://sodipodi.sourceforge.net/DTD/sodipodi-0.dtd"
   xmlns:inkscape="http://www.inkscape.org/namespaces/inkscape"
   width="744.09448"
   height="524.40942"
   id="svg2"
   version="1.1"
   inkscape:version="0.48.4 r9939"
   sodipodi:docname="BrainGlassesLogo.svg">
  <defs
     id="defs4">
    <linearGradient
       id="linearGradient4142">
      <stop
         style="stop-color:#fface5;stop-opacity:1;"
         offset="0"
         id="stop4144" />
      <stop
         style="stop-color:#ffcbb4;stop-opacity:1;"
         offset="1"
         id="stop4146" />
    </linearGradient>
    <filter
       inkscape:collect="always"
       id="filter3947">
      <feGaussianBlur
         inkscape:collect="always"
         stdDeviation="0.28549367"
         id="feGaussianBlur3949" />
    </filter>
    <linearGradient
       inkscape:collect="always"
       xlink:href="#linearGradient4142"
       id="linearGradient4713"
       gradientUnits="userSpaceOnUse"
       x1="263.29788"
       y1="825.23444"
       x2="263.29788"
       y2="643.84448" />
    <linearGradient
       inkscape:collect="always"
       xlink:href="#linearGradient4142"
       id="linearGradient4871"
       gradientUnits="userSpaceOnUse"
       x1="263.29788"
       y1="825.23444"
       x2="263.29788"
       y2="643.84448" />
    <linearGradient
       inkscape:collect="always"
       xlink:href="#linearGradient4142"
       id="linearGradient3230"
       gradientUnits="userSpaceOnUse"
       x1="263.29788"
       y1="825.23444"
       x2="263.29788"
       y2="643.84448"
       gradientTransform="matrix(1.4721162,0,0,1.2962396,-146.75314,-194.73205)" />
  </defs>
  <sodipodi:namedview
     id="base"
     pagecolor="#ffffff"
     bordercolor="#666666"
     borderopacity="1.0"
     inkscape:pageopacity="0.0"
     inkscape:pageshadow="2"
     inkscape:zoom="1.75"
     inkscape:cx="292.99183"
     inkscape:cy="286.94335"
     inkscape:document-units="px"
     inkscape:current-layer="layer1"
     showgrid="false"
     inkscape:window-width="1323"
     inkscape:window-height="702"
     inkscape:window-x="33"
     inkscape:window-y="35"
     inkscape:window-maximized="0"
     inkscape:snap-bbox="true"
     inkscape:bbox-paths="true"
     inkscape:bbox-nodes="true"
     inkscape:snap-bbox-edge-midpoints="true"
     inkscape:snap-global="false" />
  <metadata
     id="metadata7">
    <rdf:RDF>
      <cc:Work
         rdf:about="">
        <dc:format>image/svg+xml</dc:format>
        <dc:type
           rdf:resource="http://purl.org/dc/dcmitype/StillImage" />
        <dc:title></dc:title>
      </cc:Work>
    </rdf:RDF>
  </metadata>
  <g
     inkscape:label="Layer 1"
     inkscape:groupmode="layer"
     id="layer1"
     transform="translate(0,-527.95269)">
    <path
       style="fill:url(#linearGradient3230);fill-opacity:1;stroke:#bb96ab;stroke-width:3.53473639;stroke-linecap:round;stroke-linejoin:round;stroke-miterlimit:4;stroke-opacity:1;stroke-dasharray:none;marker-start:none"
       d="m 296.15052,649.25972 c 6.68521,12.2323 1.38194,22.44958 1.85369,31.8258 0.47174,9.37622 1.04788,20.81739 1.33022,28.0008 0.28234,7.18338 0.84203,17.56771 0.30423,25.86086 -0.53779,8.29315 -1.4989,17.11402 -0.59983,27.01725 0.89905,9.90323 1.12204,21.26404 0.0195,33.66544 -1.10249,12.4014 -1.6369,26.07068 -1.93945,37.07441 -0.30255,11.00377 -6.9794,17.67019 -12.29712,23.57019 -5.31772,5.89999 -12.84239,10.01785 -21.55885,14.06893 -8.71646,4.05108 -16.4578,4.49412 -24.29192,6.44854 -7.83413,1.95442 -16.8706,-1.27825 -26.12916,-0.59688 -9.25857,0.68137 -14.95038,-3.57573 -23.52623,-4.86196 -8.57585,-1.28622 -12.92184,-7.70278 -20.66893,-12.09633 -7.7471,-4.39355 -8.43728,-10.82616 -15.05177,-16.84583 -6.61449,-6.01967 -10.91506,-8.5109 -14.36875,-19.7453 -3.45369,-11.23441 -6.91896,-20.09715 -5.75711,-31.25394 1.16186,-11.1568 -3.32284,-23.24799 -2.16778,-33.07762 1.15506,-9.82962 5.1891,-18.54979 6.08875,-28.38326 0.89964,-9.83347 8.41398,-16.93586 11.91934,-27.29162 3.50535,-10.35577 11.3956,-7.07657 18.76756,-20.64649 7.37197,-13.56993 9.83962,-11.16383 15.80963,-15.03822 5.97001,-3.87439 10.00345,-10.54092 21.92374,-14.18438 11.92029,-3.64345 9.55419,-6.62997 22.79456,-7.28671 13.24038,-0.65674 15.87491,-3.62194 24.57887,-3.39656 8.70396,0.22538 24.89036,-0.63914 33.00357,0.18127 8.1132,0.8204 11.53078,14.55421 9.9632,6.99161 z"
       id="path2985"
       inkscape:connector-curvature="0"
       sodipodi:nodetypes="czzzzzzzzzzzzzzzzzzzzzzzzcc" />
    <g
       id="g3095"
       style="stroke:#bb96ab;stroke-opacity:1"
       transform="matrix(1.399612,0,0,1.2323977,-131.63112,-156.05946)">
      <path
         sodipodi:nodetypes="czzc"
         inkscape:connector-curvature="0"
         id="path3045"
         d="m 307.70517,676.15048 c -10.87103,-8.8098 -11.32018,-20.93258 -18.43545,-20.97644 -7.11528,-0.0439 -16.6331,2.02197 -21.97581,6.83535 -5.34271,4.81339 -2.85337,11.77372 7.82275,17.94032"
         style="fill:none;stroke:#bb96ab;stroke-width:1.27942061px;stroke-linecap:round;stroke-linejoin:round;stroke-opacity:1;marker-start:none" />
      <path
         style="fill:none;stroke:#bb96ab;stroke-width:1.27942061px;stroke-linecap:round;stroke-linejoin:round;stroke-opacity:1;marker-start:none"
         d="m 285.34153,670.76028 c 16.06237,8.99964 1.76316,24.8622 -4.74401,27.28452 -6.50717,2.42233 -12.39345,-12.1863 -17.47496,-6.75719 -5.0815,5.4291 -5.09256,13.54183 -19.60379,14.82745"
         id="path3047"
         inkscape:connector-curvature="0"
         sodipodi:nodetypes="czzc" />
      <path
         sodipodi:nodetypes="czzc"
         inkscape:connector-curvature="0"
         id="path3049"
         d="m 257.78782,651.19049 c -11.19776,4.07895 -15.64288,11.98608 -22.02124,18.67944 -6.37836,6.69336 -6.16644,15.01216 -9.44923,22.51126 -3.28279,7.49909 0.27352,16.49683 17.50352,13.64079"
         style="fill:none;stroke:#bb96ab;stroke-width:1.27942061px;stroke-linecap:round;stroke-linejoin:round;stroke-opacity:1;marker-start:none" />
      <path
         sodipodi:nodetypes="czzc"
         inkscape:connector-curvature="0"
         id="path3051"
         d="m 227.40011,665.49528 c -10.29915,11.18571 -11.01026,22.1431 -15.93789,30.3127 -4.92764,8.16961 3.61142,15.23754 0.49016,20.17183 -3.12126,4.93429 -16.56938,15.45639 -23.12476,31.90493"
         style="fill:none;stroke:#bb96ab;stroke-width:1.27942061px;stroke-linecap:round;stroke-linejoin:round;stroke-opacity:1;marker-start:none" />
      <path
         sodipodi:nodetypes="czzzc"
         inkscape:connector-curvature="0"
         id="path3053"
         d="m 212.54261,714.97542 c 0,0 -1.66652,18.75794 5.73745,14.07001 7.40398,-4.68793 8.41838,-10.71399 15.37508,-11.11355 6.9567,-0.39955 4.56361,3.14618 13.09137,2.7711 8.52776,-0.37507 15.50263,3.67169 15.50263,3.67169"
         style="fill:none;stroke:#bb96ab;stroke-width:1.27942061px;stroke-linecap:round;stroke-linejoin:round;stroke-opacity:1;marker-start:none" />
      <path
         sodipodi:nodetypes="czc"
         inkscape:connector-curvature="0"
         id="path3055"
         d="m 278.70556,698.86127 c 0,0 1.11913,10.847 -2.72242,18.39271 -3.84156,7.54572 0.0621,13.86343 10.01016,21.2513"
         style="fill:none;stroke:#bb96ab;stroke-width:1.27942061px;stroke-linecap:round;stroke-linejoin:round;stroke-opacity:1;marker-start:none" />
      <path
         sodipodi:nodetypes="czzc"
         inkscape:connector-curvature="0"
         id="path3057"
         d="m 206.03342,756.96694 c 3.21117,-3.95076 7.21518,-15.41147 14.59096,-16.53587 7.37578,-1.1244 18.39195,-10.89119 23.28309,-8.97184 4.89114,1.91935 9.80569,9.17878 9.80188,21.25937"
         style="fill:none;stroke:#bb96ab;stroke-width:1.27942061px;stroke-linecap:round;stroke-linejoin:round;stroke-opacity:1;marker-start:none" />
      <path
         sodipodi:nodetypes="czzc"
         inkscape:connector-curvature="0"
         id="path3059"
         d="m 300.40181,696.42944 c 0,0 -14.56191,21.10779 -7.89023,29.32652 6.67167,8.21875 3.91779,16.64657 -1.35503,22.09883 -5.27282,5.45226 -20.09923,-2.73514 -20.09923,-2.73514"
         style="fill:none;stroke:#bb96ab;stroke-width:1.27942061px;stroke-linecap:round;stroke-linejoin:round;stroke-opacity:1;marker-start:none" />
      <path
         style="fill:none;stroke:#bb96ab;stroke-width:1.27942061px;stroke-linecap:round;stroke-linejoin:round;stroke-opacity:1;marker-start:none"
         d="m 293.54832,746.0752 c 0,0 13.42666,4.50275 6.37394,11.74458 -7.05271,7.24181 6.03417,15.2133 -1.09108,26.00099"
         id="path3061"
         inkscape:connector-curvature="0"
         sodipodi:nodetypes="czc" />
      <path
         sodipodi:nodetypes="czc"
         inkscape:connector-curvature="0"
         id="path4011"
         d="m 217.13661,778.06111 c 0,0 -0.58844,-10.77367 0.1961,-16.1663 0.78455,-5.39264 9.83056,-17.49566 2.93684,-21.12828"
         style="fill:none;stroke:#bb96ab;stroke-width:1.27942061px;stroke-linecap:butt;stroke-linejoin:miter;stroke-opacity:1" />
      <path
         sodipodi:nodetypes="czzc"
         inkscape:connector-curvature="0"
         id="path4015"
         d="m 240.80095,742.51791 c -8.03213,8.03211 -16.12156,22.14005 -8.06025,20.36088 8.06132,-1.77918 13.99767,9.32529 22.45959,6.72951 8.46191,-2.59576 23.48257,-21.20127 23.48257,-21.20127"
         style="fill:none;stroke:#bb96ab;stroke-width:1.27942061px;stroke-linecap:butt;stroke-linejoin:miter;stroke-opacity:1" />
      <path
         sodipodi:nodetypes="czc"
         inkscape:connector-curvature="0"
         id="path4017"
         d="m 265.09189,670.4699 c -6.8398,0.086 -13.77348,2.0352 -16.85352,9.87088 -3.08004,7.83568 -9.7928,11.87489 -9.7928,11.87489"
         style="fill:none;stroke:#bb96ab;stroke-width:1.27942061px;stroke-linecap:butt;stroke-linejoin:miter;stroke-opacity:1" />
      <path
         sodipodi:nodetypes="czzc"
         inkscape:connector-curvature="0"
         id="path4019"
         d="m 303.44989,805.07462 c 0,0 -10.92733,0.18503 -17.01444,-4.10387 -6.0871,-4.28891 9.6621,-17.20288 2.23403,-26.18302 -7.42807,-8.98015 -2.86249,-17.2647 -2.86249,-17.2647"
         style="fill:none;stroke:#bb96ab;stroke-width:1.27942061px;stroke-linecap:butt;stroke-linejoin:miter;stroke-opacity:1" />
      <path
         sodipodi:nodetypes="czc"
         inkscape:connector-curvature="0"
         id="path4021"
         d="m 274.79739,763.39301 c 0,0 10.49639,13.12297 5.5048,20.37235 -4.9916,7.24939 -3.80371,23.93649 -1.21111,30.40421"
         style="fill:none;stroke:#bb96ab;stroke-width:1.27942061px;stroke-linecap:butt;stroke-linejoin:miter;stroke-opacity:1" />
      <path
         sodipodi:nodetypes="czc"
         inkscape:connector-curvature="0"
         id="path4023"
         d="m 249.59374,777.17037 c 0,0 9.54181,10.83886 13.52272,3.61368 3.9809,-7.22518 16.5144,-8.28706 16.5144,-8.28706"
         style="fill:none;stroke:#bb96ab;stroke-width:1.27942061px;stroke-linecap:butt;stroke-linejoin:miter;stroke-opacity:1" />
      <path
         sodipodi:nodetypes="czc"
         inkscape:connector-curvature="0"
         id="path4025"
         d="m 217.54075,765.35756 c 0,0 13.71944,12.67755 18.15187,19.04953 4.43243,6.37197 19.67643,6.1785 24.16275,15.06117"
         style="fill:none;stroke:#bb96ab;stroke-width:1.27942061px;stroke-linecap:butt;stroke-linejoin:miter;stroke-opacity:1" />
      <path
         style="fill:none;stroke:#bb96ab;stroke-width:1.27942061px;stroke-linecap:butt;stroke-linejoin:miter;stroke-opacity:1"
         d="m 268.4547,788.53545 c 0,0 -10.32602,5.12969 -8.79404,13.27927 1.53198,8.14958 3.84643,14.94287 8.8496,24.45681"
         id="path4027"
         inkscape:connector-curvature="0"
         sodipodi:nodetypes="czc" />
      <path
         sodipodi:nodetypes="czc"
         inkscape:connector-curvature="0"
         id="path4029"
         d="m 275.88818,827.31584 c 0,0 16.85929,-5.83515 12.94255,-11.0988 -3.91676,-5.26364 3.65779,-12.18682 3.65779,-12.18682"
         style="fill:none;stroke:#bb96ab;stroke-width:1.27942061px;stroke-linecap:butt;stroke-linejoin:miter;stroke-opacity:1" />
      <path
         sodipodi:nodetypes="czzc"
         inkscape:connector-curvature="0"
         id="path4031"
         d="m 257.27331,837.79124 c 0,0 -1.78569,-8.69268 -9.81197,-10.25776 -8.02627,-1.56509 -8.3693,-1.63893 -14.42093,0.7116 -6.05163,2.35053 -6.4868,-8.47744 -6.4868,-8.47744"
         style="fill:none;stroke:#bb96ab;stroke-width:1.27942061px;stroke-linecap:butt;stroke-linejoin:miter;stroke-opacity:1" />
      <path
         sodipodi:nodetypes="czc"
         inkscape:connector-curvature="0"
         id="path4033"
         d="m 248.70731,828.02195 c 0,0 -5.07848,-3.48757 -6.07408,-10.99046 -0.9956,-7.50288 8.41026,0.24424 8.41026,0.24424"
         style="fill:none;stroke:#bb96ab;stroke-width:1.27942061px;stroke-linecap:butt;stroke-linejoin:miter;stroke-opacity:1" />
      <path
         style="fill:none;stroke:#bb96ab;stroke-width:1.27942061px;stroke-linecap:butt;stroke-linejoin:miter;stroke-opacity:1"
         d="m 245.49116,805.60216 c -6.35193,-5.24251 -8.29427,17.10301 -13.60438,9.96393 -5.3101,-7.13907 -10.37884,-8.25541 -10.74644,-5.3731"
         id="path4035"
         inkscape:connector-curvature="0"
         sodipodi:nodetypes="czc" />
      <path
         sodipodi:nodetypes="czc"
         inkscape:connector-curvature="0"
         id="path4037"
         d="m 226.43568,809.94876 c -6.35192,-5.24251 -3.4706,-15.14305 -8.09877,-14.89819 -4.62817,0.24486 -8.1728,-17.3131 -8.54041,-14.43079"
         style="fill:none;stroke:#bb96ab;stroke-width:1.27942061px;stroke-linecap:butt;stroke-linejoin:miter;stroke-opacity:1" />
      <path
         sodipodi:nodetypes="csc"
         inkscape:connector-curvature="0"
         id="path4039"
         d="m 204.48,790.82426 c -0.11109,0.18665 4.33477,12.80955 7.62709,13.50715 2.33878,0.49555 2.87162,17.17036 9.18899,15.38664"
         style="fill:none;stroke:#bb96ab;stroke-width:1.27942061px;stroke-linecap:butt;stroke-linejoin:miter;stroke-opacity:1" />
      <path
         sodipodi:nodetypes="czzc"
         inkscape:connector-curvature="0"
         id="path4013"
         d="m 248.46201,757.65709 c 0,0 10.16887,-8.60451 13.08346,-13.47168 2.9146,-4.86717 5.22356,-10.9932 1.13793,-19.76609 -4.08563,-8.7729 4.09568,-17.33429 4.09568,-17.33429"
         style="fill:none;stroke:#bb96ab;stroke-width:1.27942061px;stroke-linecap:butt;stroke-linejoin:miter;stroke-opacity:1" />
      <path
         style="fill:none;stroke:#bb96ab;stroke-width:1.27942061px;stroke-linecap:round;stroke-linejoin:round;stroke-opacity:1;marker-start:none"
         d="m 210.04738,764.56458 c -8.83069,12.4601 -18.22996,1.71682 -15.1123,-5.29139 3.11765,-7.00821 5.60308,-17.45195 18.36714,-30.86698"
         id="path3232"
         inkscape:connector-curvature="0"
         sodipodi:nodetypes="czc" />
    </g>
    <path
       style="fill:none;stroke:#bb96ab;stroke-width:2.55884123;stroke-linecap:round;stroke-linejoin:round;stroke-miterlimit:4;stroke-opacity:1;stroke-dasharray:none;marker-start:none;filter:url(#filter3947)"
       d="m 270.24454,813.21107 c 0,0 -2.58301,-27.29518 -20.719,-33.14735 -18.136,-5.85218 -18.00207,-24.93194 -27.09786,-24.22361 -9.09579,0.70835 -11.52648,9.28189 -16.82243,14.65561"
       id="path2989"
       inkscape:connector-curvature="0"
       sodipodi:nodetypes="czzc"
       transform="matrix(1.4721162,0,0,1.2962396,-161.03885,-177.01776)" />
  </g>
</svg>
