<?xml version="1.0" encoding="UTF-8" standalone="no"?>
<!-- Created with Inkscape (http://www.inkscape.org/) -->

<svg
   xmlns:dc="http://purl.org/dc/elements/1.1/"
   xmlns:cc="http://creativecommons.org/ns#"
   xmlns:rdf="http://www.w3.org/1999/02/22-rdf-syntax-ns#"
   xmlns:svg="http://www.w3.org/2000/svg"
   xmlns="http://www.w3.org/2000/svg"
   xmlns:sodipodi="http://sodipodi.sourceforge.net/DTD/sodipodi-0.dtd"
   xmlns:inkscape="http://www.inkscape.org/namespaces/inkscape"
   width="240.45334mm"
   height="89.18222mm"
   viewBox="0 0 852.00002 315.99999"
   id="svg2"
   version="1.1"
   inkscape:version="0.91 r13725"
   sodipodi:docname="BrainShine.svg"
   inkscape:export-filename="/home/hamza/Pictures/Brain Glasses Logo/Others/BrainShine.png"
   inkscape:export-xdpi="89.889999"
   inkscape:export-ydpi="89.889999">
  <defs
     id="defs4">
    <filter
       inkscape:collect="always"
       style="color-interpolation-filters:sRGB"
       id="filter4912"
       x="-0.18000001"
       width="1.36"
       y="-0.18000001"
       height="1.36">
      <feGaussianBlur
         inkscape:collect="always"
         stdDeviation="31.05"
         id="feGaussianBlur4914" />
    </filter>
  </defs>
  <sodipodi:namedview
     id="base"
     pagecolor="#ffffff"
     bordercolor="#666666"
     borderopacity="1.0"
     inkscape:pageopacity="0.0"
     inkscape:pageshadow="2"
     inkscape:zoom="1.07"
     inkscape:cx="412.6172"
     inkscape:cy="190.49594"
     inkscape:document-units="px"
     inkscape:current-layer="layer2"
     showgrid="false"
     inkscape:snap-global="true"
     inkscape:snap-bbox="false"
     inkscape:bbox-nodes="true"
     inkscape:object-paths="true"
     inkscape:snap-intersection-paths="true"
     inkscape:object-nodes="true"
     inkscape:snap-nodes="false"
     fit-margin-top="0"
     fit-margin-left="0"
     fit-margin-right="0"
     fit-margin-bottom="0"
     showborder="false"
     inkscape:window-width="1366"
     inkscape:window-height="739"
     inkscape:window-x="0"
     inkscape:window-y="0"
     inkscape:window-maximized="1" />
  <metadata
     id="metadata7">
    <rdf:RDF>
      <cc:Work
         rdf:about="">
        <dc:format>image/svg+xml</dc:format>
        <dc:type
           rdf:resource="http://purl.org/dc/dcmitype/StillImage" />
        <dc:title />
      </cc:Work>
    </rdf:RDF>
  </metadata>
  <g
     inkscape:groupmode="layer"
     id="layer4"
     inkscape:label="Unused"
     style="display:none"
     transform="translate(67.05777,-256.80048)">
    <path
       id="path3354"
       style="display:inline;fill:#1a1a1a;fill-rule:evenodd;stroke:#333333;stroke-width:1.65369272px;stroke-linecap:butt;stroke-linejoin:miter;stroke-opacity:1"
       d="m 434.60329,357.29311 c -11.1419,-1.21345 -23.81147,-2.8755 -34.95338,-6.04158 12.62643,-1.7047 23.59939,1.49998 34.95338,6.04158 z m -123.6796,119.24694 c 6.45058,1.98058 12.90115,0.86562 19.35173,3.51848 -1.73058,3.21269 -4.29861,3.0755 -7.03699,2.25695 -10.94629,-1.36832 -11.22312,-3.42165 -12.31474,-5.77543 z m 83.56428,7.03697 -36.94422,2.63888 -12.31473,-7.9166 16.71286,0.87961 z m 193.62965,-40.66771 c 8.79866,-1.34339 14.74531,2.64192 21.88597,2.74078 3.51151,1.40559 11.67678,11.14771 20.66104,7.62015 9.40901,3.5183 21.79785,2.26024 26.53828,-1.21741 8.50288,-0.0604 11.66388,-9.33306 20.15363,-19.27724 1.51386,-5.61979 2.05065,-12.87388 1.52769,-19.5121 -2.24823,-3.52291 -4.03761,-1.78351 -6.2169,-13.87241 -7.40771,1.07407 -7.48275,-2.53015 -11.00371,-6.31452 -7.37032,-2.62061 -17.83764,0.007 -30.69397,-2.48675 -9.13748,-1.93547 -14.34696,4.50133 -19.7356,6.34739 -8.24614,-0.23321 -12.5433,3.22953 -21.38492,3.31533 -1.06544,-6.59735 -7.56006,-5.69559 -17.99303,-14.63624 -7.29145,-14.96202 -15.17451,-35.37572 -23.33132,-41.79533 -17.98029,-10.16916 -50.87384,-13.80263 -78.62568,-15.30243 -17.73517,-5.56212 -46.82641,-11.09733 -76.32561,-12.5314 -0.65113,7.54002 -6.97293,3.94313 -45.42782,2.58438 -12.44496,0.14552 -21.58164,-1.91432 -31.08445,-3.73014 -6.03272,-0.27642 -10.74933,3.77745 -15.782,6.50119 -6.3731,6.12213 -5.44214,11.09847 -7.07835,17.22061 -0.8053,4.87217 3.43466,2.78949 7.54466,2.74636 2.21831,-4.74281 6.15418,-8.34059 14.4559,-9.0278 3.46403,-0.1634 5.82712,-0.57432 10.28937,2.25695 -11.3786,3.89441 -27.86612,7.74627 -5.1274,10.70584 11.34275,-1.44262 17.43347,-3.93617 24.71069,-9.44431 15.26285,-0.31582 28.6195,2.7887 42.86998,7.53472 6.52806,3.46454 7.9145,5.73918 10.82163,8.29852 -29.5931,-4.36674 -40.63898,-6.10087 -65.62442,-2.25694 l -52.24517,-0.38192 c -18.51165,2.092 -34.416,1.57671 -49.87242,0.61348 -17.50452,0.4917 -28.2386,-2.58094 -38.96958,-5.89123 -17.59248,-1.62816 -35.18496,-4.12292 -52.77745,-0.87962 -9.67584,-2.53435 -19.35172,-3.67494 -29.02758,-5.27775 -4.23541,3.19306 -6.55658,2.55766 -8.79624,1.75925 -2.627778,-6.16476 -15.390338,-3.0269 -26.354158,-3.63428 -3.51021,3.16678 -7.68742,4.66608 -13.22891,2.75466 -1.58592,-4.92459 -3.14852,-6.23264 -6.77084,-10.13902 -4.23844,-7.82958 -14.48739,-8.95988 -22.63866,-9.94198 -5.01297,1.59145 -4.38691,7.69411 -4.5139,13.19435 -0.81205,12.16891 1.21531,14.39999 2.25695,20.081 2.32705,6.67708 7.1555,6.38441 12.43051,8.14818 -3.63718,3.1481 -2.33144,6.2962 -0.9954,9.4443 1.00452,3.89676 3.85994,4.70864 7.9166,3.5185 7.59533,-0.26514 17.27852,-1.09043 23.90019,-0.38193 7.95381,3.33259 13.79564,8.05893 22.71988,6.53929 3.861788,-6.34571 24.617878,4.21635 93.806938,10.67128 27.41175,2.82909 49.07426,8.03156 75.96047,12.19894 17.21764,3.22528 29.1693,6.45058 35.18493,9.67585 -8.05137,7.64709 -21.77385,9.29883 -32.69641,11.20356 -23.32199,-0.32972 -37.42052,2.20124 -56.14558,4.62968 l -27.26834,6.15737 c -18.88939,-1.89956 -35.49342,0.65145 -51.40011,2.78921 -37.410808,2.9367 -43.301978,2.58252 -57.986058,9.25938 -4.58706,1.15969 -9.1741,1.50227 -13.76117,5.54387 -25.04302,-0.9472 -27.88091,-8.53118 -37.4419,1.37734 -2.12064,9.47302 -3.663,20.71103 -1.75925,29.17795 1.7566,3.55527 3.76832,6.72793 7.5347,7.26854 13.21306,-4.21709 26.47902,-8.75163 38.70345,-7.03698 12.72462,1.31893 20.51235,-1.47622 38.703448,4.39812 11.5569,-3.04503 22.88024,-5.99355 33.42569,-7.03699 16.71285,1.06112 33.42572,-0.70183 50.13856,-2.63886 24.59461,-4.61926 36.37802,-1.70683 43.9812,-1.42401 8.79624,5.37028 17.59246,0.93758 26.38871,2.30362 10.94978,0.97065 21.1918,-0.0804 33.15957,-1.14576 8.42639,9.83738 6.16207,13.24059 9.06238,19.61786 3.17209,3.97126 10.31676,4.42703 14.49045,5.39352 27.51487,-1.95909 62.70952,3.50552 73.47193,5.77546 1.28014,4.08632 4.46515,6.26777 8.79624,7.30313 18.76531,1.31116 37.53061,-0.62625 56.29592,-4.39813 18.57416,2.53716 29.97467,-3.54373 44.86081,-0.87962 13.19437,-0.75818 26.38873,-0.75062 39.58308,-4.39813 13.35482,-8.76226 23.84372,-19.62916 25.50908,-36.06457 6.78127,-13.19658 13.56252,-19.48086 20.34378,-25.71411 z"
       inkscape:connector-curvature="0"
       sodipodi:nodetypes="cccccccccccccccccccccccccccccccccccccccccccccccccccccccccccccccccccccccccccccccccccc" />
  </g>
  <g
     inkscape:groupmode="layer"
     id="layer2"
     inkscape:label="Vector"
     style="display:inline"
     transform="translate(67.05777,-256.80048)">
    <rect
       style="opacity:1;fill:#1a1a1a;fill-opacity:1;stroke:#1a1a1a;stroke-width:1;stroke-miterlimit:4;stroke-dasharray:none;stroke-opacity:1"
       id="rect4189"
       width="851"
       height="315"
       x="-66.55777"
       y="257.30048" />
    <path
       style="display:inline;fill:#1a1a1a;fill-rule:evenodd;stroke:#333333;stroke-width:1.65369272px;stroke-linecap:butt;stroke-linejoin:miter;stroke-opacity:1"
       d="m 354.46484,303.41992 c -1.70138,-4.3e-4 -3.40099,0.0646 -5.06054,0.19531 -3.52291,2.24823 -1.7822,4.03751 -13.8711,6.2168 1.07407,7.40771 -2.53008,7.48295 -6.31445,11.00391 -2.62061,7.37032 0.007,17.83703 -2.48633,30.69336 -1.93547,9.13748 4.49964,14.34769 6.3457,19.73632 -0.2332,8.24615 3.23061,12.54315 3.31641,21.38477 -6.59735,1.06544 -5.69607,7.56117 -14.63672,17.99414 -14.96202,7.29145 -35.37531,15.17327 -41.79492,23.33008 -10.16916,17.98029 -13.80293,50.87511 -15.30273,78.62695 -4.50967,14.37936 -8.99994,36.22478 -11.30274,59.69922 l 33.71094,0 c 0.58947,-8.42978 3.13434,-16.32219 6.36719,-24.4043 -0.84309,7.74125 -1.9167,16.21289 -3.54688,24.4043 l 160.98828,0 c 0.2907,-15.87393 -1.57882,-31.74716 -4.76953,-47.62109 2.53716,-18.57416 -3.54301,-29.97519 -0.8789,-44.86133 -0.75818,-13.19437 -0.75093,-26.38964 -4.39844,-39.58398 -8.76226,-13.35483 -19.62904,-23.84246 -36.06446,-25.50782 -13.19657,-6.78127 -19.48159,-13.56249 -25.71484,-20.34375 -1.34339,-8.79866 2.64138,-14.74606 2.74024,-21.88672 1.40559,-3.51151 11.14865,-11.67589 7.62109,-20.66015 3.5183,-9.40901 2.26085,-21.79863 -1.2168,-26.53906 -0.0604,-8.50289 -9.33316,-11.66455 -19.27734,-20.1543 -4.21484,-1.1354 -9.34899,-1.72135 -14.45313,-1.72266 z"
       id="path4916"
       inkscape:connector-curvature="0" />
    <g
       id="g4390"
       transform="matrix(0.21003717,0,0,0.21003717,283.55103,267.60127)">
      <g
         transform="matrix(1.202945,0,0,1.202945,-72.845522,-69.272657)"
         style="fill:#ffeeaa;stroke:#ffdd55;stroke-width:2.49387956;stroke-miterlimit:4;stroke-dasharray:none"
         id="g4305">
        <path
           style="fill:#ffeeaa;fill-rule:evenodd;stroke:#ffdd55;stroke-width:2.49387956;stroke-linecap:butt;stroke-linejoin:miter;stroke-miterlimit:4;stroke-dasharray:none;stroke-opacity:1"
           d="m 283.73086,417.24461 c -4.52446,-2.43116 -7.71748,-5.97187 -9.19289,-10.94391 -3.44817,-1.67814 -6.70663,-1.45934 -10.62619,-7.85138 -1.27396,-6.22831 0.82233,-11.35752 3.05018,-16.58532 -3.69284,-6.28117 -5.40339,-6.94382 -6.10035,-11.05688 -0.0757,-3.88911 1.09347,-7.23158 2.6689,-12.39134 -0.73927,-18.36517 -1.45837,-32.7901 2.47827,-35.26764 -0.81237,-3.21589 -1.69749,-6.39542 -1.52509,-10.1037 1.97421,-7.03845 5.28256,-9.40742 8.19734,-13.15388 2.09212,-7.34677 4.4531,-12.54259 7.05353,-15.82278 4.87221,-5.50408 10.06168,-8.46997 15.44151,-9.91306 -0.53166,-4.1421 1.73017,-6.88744 4.19399,-9.5318 5.27426,-3.5555 10.54852,-2.39718 15.82278,-2.6689 1.35241,-2.51072 3.35173,-2.75729 5.71908,-1.71573 6.00226,-5.68397 8.86742,-5.63043 16.20405,-7.62543 6.49085,1.83159 16.4983,9.54601 21.73249,15.25087 l -0.38127,113.619 c -1.16084,0.71866 -0.69932,5.12556 -0.38127,7.81607 -0.91349,2.35912 -1.03652,7.46897 -4.38463,9.34116 -4.25753,1.69749 -5.27426,1.88915 -9.53179,-0.38127 -0.79385,4.27366 -7.1502,6.14733 -8.95989,9.91307 -1.71587,2.14774 -1.4401,5.94799 -5.52844,6.67225 0.2063,5.66874 -3.26858,2.97141 -9.15052,7.62544 -8.46915,4.37809 -16.35941,5.63021 -22.30441,-3.62208 -5.46653,1.79312 -10.54533,2.16453 -14.49538,-1.60276 z"
           id="path4220"
           inkscape:connector-curvature="0"
           sodipodi:nodetypes="ccccccccccccccccccccccccc" />
        <path
           sodipodi:nodetypes="ccccccccccccccccccccccccc"
           inkscape:connector-curvature="0"
           id="path4775"
           d="m 434.15361,417.24461 c 4.52446,-2.43116 7.71748,-5.97187 9.19289,-10.94391 3.44817,-1.67814 6.70663,-1.45934 10.62619,-7.85138 1.27396,-6.22831 -0.82233,-11.35752 -3.05018,-16.58532 3.69284,-6.28117 5.40339,-6.94382 6.10035,-11.05688 0.0757,-3.88911 -1.09347,-7.23158 -2.6689,-12.39134 0.73927,-18.36517 1.45837,-32.7901 -2.47827,-35.26764 0.81237,-3.21589 1.69749,-6.39542 1.52509,-10.1037 -1.97421,-7.03845 -5.28256,-9.40742 -8.19734,-13.15388 -2.09212,-7.34677 -4.4531,-12.54259 -7.05353,-15.82278 -4.87221,-5.50408 -10.06168,-8.46997 -15.44151,-9.91306 0.53166,-4.1421 -1.73017,-6.88744 -4.19399,-9.5318 -5.27426,-3.5555 -10.54852,-2.39718 -15.82278,-2.6689 -1.35241,-2.51072 -3.35173,-2.75729 -5.71908,-1.71573 -6.00226,-5.68397 -8.86742,-5.63043 -16.20405,-7.62543 -6.49085,1.83159 -16.4983,9.54601 -21.73249,15.25087 l 0.38127,113.619 c 1.16084,0.71866 0.69932,5.12556 0.38127,7.81607 0.91349,2.35912 1.03652,7.46897 4.38463,9.34116 4.25753,1.69749 5.27426,1.88915 9.53179,-0.38127 0.79385,4.27366 7.1502,6.14733 8.95989,9.91307 1.71587,2.14774 1.4401,5.94799 5.52844,6.67225 -0.2063,5.66874 3.26858,2.97141 9.15052,7.62544 8.46915,4.37809 16.35941,5.63021 22.30441,-3.62208 5.46653,1.79312 10.54533,2.16453 14.49538,-1.60276 z"
           style="fill:#ffeeaa;fill-rule:evenodd;stroke:#ffdd55;stroke-width:2.49387956;stroke-linecap:butt;stroke-linejoin:miter;stroke-miterlimit:4;stroke-dasharray:none;stroke-opacity:1" />
      </g>
      <path
         sodipodi:nodetypes="cccc"
         inkscape:connector-curvature="0"
         id="path4222"
         d="m 358.75018,276.57207 c -3.41655,-4.30156 -5.96703,-18.0345 -13.22156,-24.99534 -7.33847,-5.51103 -13.07107,-5.70476 -22.4738,-1.83459 -6.57471,4.0514 -6.32775,15.94979 -10.3196,21.78583"
         style="fill:none;fill-rule:evenodd;stroke:#ffdd55;stroke-width:5;stroke-linecap:butt;stroke-linejoin:miter;stroke-miterlimit:4;stroke-dasharray:none;stroke-opacity:1" />
      <path
         sodipodi:nodetypes="ccccc"
         inkscape:connector-curvature="0"
         id="path4224"
         d="m 313.19387,243.7797 c -7.78669,16.78027 -1.92523,24.26055 -17.42867,27.28962 8.28398,14.46487 12.31702,10.60513 19.03394,8.71433 7.56022,-3.41053 10.0038,-9.95061 17.19933,-12.1542 7.17813,4.38465 -0.58127,11.27993 16.74069,24.07907"
         style="fill:none;fill-rule:evenodd;stroke:#ffdd55;stroke-width:5;stroke-linecap:butt;stroke-linejoin:miter;stroke-miterlimit:4;stroke-dasharray:none;stroke-opacity:1" />
      <path
         sodipodi:nodetypes="ccc"
         inkscape:connector-curvature="0"
         id="path4226"
         d="m 295.7652,271.06932 c 1.84619,-19.47908 -4.6924,-13.89548 -16.28204,-0.9173 -4.92811,4.99668 -9.741,8.65991 -13.47334,-0.18122"
         style="fill:none;fill-rule:evenodd;stroke:#ffdd55;stroke-width:5;stroke-linecap:butt;stroke-linejoin:miter;stroke-miterlimit:4;stroke-dasharray:none;stroke-opacity:1" />
      <path
         sodipodi:nodetypes="ccccc"
         inkscape:connector-curvature="0"
         id="path4228"
         d="m 258.39317,281.9864 c 7.71797,10.86313 15.43595,5.28048 23.15391,-0.59748 12.0656,-9.07628 12.83614,0.67254 16.28204,5.96244 -14.06074,0.20065 -11.05004,3.72526 -17.88731,8.48501 -6.34523,3.35885 -15.67107,0.34942 -24.07907,8.485"
         style="fill:none;fill-rule:evenodd;stroke:#ffdd55;stroke-width:5;stroke-linecap:butt;stroke-linejoin:miter;stroke-miterlimit:4;stroke-dasharray:none;stroke-opacity:1" />
      <path
         sodipodi:nodetypes="cc"
         inkscape:connector-curvature="0"
         id="path4230"
         d="m 297.82912,287.35136 c 5.6329,11.1389 27.14984,-4.2966 32.56408,10.3196"
         style="fill:none;fill-rule:evenodd;stroke:#ffdd55;stroke-width:5;stroke-linecap:butt;stroke-linejoin:miter;stroke-miterlimit:4;stroke-dasharray:none;stroke-opacity:1" />
      <path
         sodipodi:nodetypes="cc"
         inkscape:connector-curvature="0"
         id="path4232"
         d="m 329.75779,258.35967 c 11.43254,-3.79439 18.79971,19.95866 28.92082,39.53934"
         style="fill:none;fill-rule:evenodd;stroke:#ffdd55;stroke-width:5;stroke-linecap:butt;stroke-linejoin:miter;stroke-miterlimit:4;stroke-dasharray:none;stroke-opacity:1" />
      <path
         sodipodi:nodetypes="ccc"
         inkscape:connector-curvature="0"
         id="path4234"
         d="m 243.9166,328.11689 c 20.32094,-11.32867 9.18101,-5.81728 12.17547,-15.76916 6.56947,-7.29152 16.84759,-12.88716 19.52136,-15.081"
         style="fill:none;fill-rule:evenodd;stroke:#ffdd55;stroke-width:5;stroke-linecap:butt;stroke-linejoin:miter;stroke-miterlimit:4;stroke-dasharray:none;stroke-opacity:1" />
      <path
         sodipodi:nodetypes="cccc"
         inkscape:connector-curvature="0"
         id="path4236"
         d="m 303.79157,298.35893 c -10.79271,2.71589 -13.77615,8.13582 -26.83098,13.53015 -10.89018,7.60609 -18.98209,17.31694 -22.70312,27.51894 -3.48834,9.4542 0.50298,18.35636 3.21054,24.99637"
         style="fill:none;fill-rule:evenodd;stroke:#ffdd55;stroke-width:5;stroke-linecap:butt;stroke-linejoin:miter;stroke-miterlimit:4;stroke-dasharray:none;stroke-opacity:1" />
      <path
         sodipodi:nodetypes="ccc"
         inkscape:connector-curvature="0"
         id="path4238"
         d="m 252.88151,409.12267 c 5.75689,-8.32261 6.62503,-23.03201 3.89852,-26.83097 -4.43276,-8.51924 -7.28724,-7.59411 -12.61284,-20.40988"
         style="fill:none;fill-rule:evenodd;stroke:#ffdd55;stroke-width:5;stroke-linecap:butt;stroke-linejoin:miter;stroke-miterlimit:4;stroke-dasharray:none;stroke-opacity:1" />
      <path
         sodipodi:nodetypes="cccc"
         inkscape:connector-curvature="0"
         id="path4240"
         d="m 281.54708,326.33652 c -6.04268,8.48501 -9.5081,16.06562 -7.10906,26.83097 4.80074,13.1159 11.58119,12.86885 18.80461,9.63163 9.24323,-4.91299 30.54065,-13.28303 38.06787,-2.75189"
         style="fill:none;fill-rule:evenodd;stroke:#ffdd55;stroke-width:5;stroke-linecap:butt;stroke-linejoin:miter;stroke-miterlimit:4;stroke-dasharray:none;stroke-opacity:1" />
      <path
         sodipodi:nodetypes="cccccc"
         inkscape:connector-curvature="0"
         id="path4242"
         d="m 290.26142,347.6637 c 3.92298,-18.69519 10.61795,-16.94675 30.72948,-16.05271 10.03605,1.6477 13.65357,2.03128 21.5565,9.86095 6.34275,7.94992 4.93952,16.35849 1.37595,24.3084 -7.21038,7.18957 -18.3985,11.53789 -34.16935,12.61284 -12.79899,-2.67829 -25.04663,-11.91148 -30.95881,12.38353"
         style="fill:none;fill-rule:evenodd;stroke:#ffdd55;stroke-width:5;stroke-linecap:butt;stroke-linejoin:miter;stroke-miterlimit:4;stroke-dasharray:none;stroke-opacity:1" />
      <path
         sodipodi:nodetypes="cccc"
         inkscape:connector-curvature="0"
         id="path4244"
         d="m 290.03209,324.27261 c 8.21012,-6.36258 15.88557,-14.15954 29.58286,-7.10907 9.72726,10.78818 20.88176,8.73567 28.20692,8.71434 6.22308,0.12625 9.34386,-9.68622 10.81288,-14.90829"
         style="fill:none;fill-rule:evenodd;stroke:#ffdd55;stroke-width:5;stroke-linecap:butt;stroke-linejoin:miter;stroke-miterlimit:4;stroke-dasharray:none;stroke-opacity:1" />
      <path
         sodipodi:nodetypes="cccc"
         inkscape:connector-curvature="0"
         id="path4246"
         d="m 358.41158,377.47371 c -2.82391,2.00441 -5.50756,7.7676 -18.38675,8.71651 -14.56195,0.053 -23.9946,3.26253 -22.70313,13.0715 0.88974,12.31548 11.4135,15.41932 16.18163,18.8699"
         style="fill:none;fill-rule:evenodd;stroke:#ffdd55;stroke-width:5;stroke-linecap:butt;stroke-linejoin:miter;stroke-miterlimit:4;stroke-dasharray:none;stroke-opacity:1" />
      <path
         sodipodi:nodetypes="ccc"
         inkscape:connector-curvature="0"
         id="path4248"
         d="m 309.754,378.39318 c -16.99923,6.41766 -16.78775,16.60026 -13.0715,25.45503 6.13149,12.68969 7.72804,27.0452 23.82245,31.13667"
         style="fill:none;fill-rule:evenodd;stroke:#ffdd55;stroke-width:5;stroke-linecap:butt;stroke-linejoin:miter;stroke-miterlimit:4;stroke-dasharray:none;stroke-opacity:1" />
      <path
         sodipodi:nodetypes="ccc"
         inkscape:connector-curvature="0"
         id="path4250"
         d="m 300.87004,414.21985 c -9.06108,0.10068 -13.92482,4.03143 -15.42444,8.20364 -1.32585,7.19362 -10.64935,13.79473 -16.9785,10.22617"
         style="fill:none;fill-rule:evenodd;stroke:#ffdd55;stroke-width:5;stroke-linecap:butt;stroke-linejoin:miter;stroke-miterlimit:4;stroke-dasharray:none;stroke-opacity:1" />
      <path
         sodipodi:nodetypes="ccc"
         inkscape:connector-curvature="0"
         id="path4252"
         d="m 264.34774,366.92697 c -8.37588,8.03101 3.00085,20.53952 7.10906,28.2069 4.91946,5.50391 14.36492,5.11805 15.59407,14.90609"
         style="fill:none;fill-rule:evenodd;stroke:#ffdd55;stroke-width:5;stroke-linecap:butt;stroke-linejoin:miter;stroke-miterlimit:4;stroke-dasharray:none;stroke-opacity:1" />
      <path
         sodipodi:nodetypes="cc"
         inkscape:connector-curvature="0"
         id="path4254"
         d="m 258.00978,394.03056 c 6.46515,4.50268 8.50995,16.65319 10.23648,24.26509"
         style="fill:none;fill-rule:evenodd;stroke:#ffdd55;stroke-width:5;stroke-linecap:butt;stroke-linejoin:miter;stroke-miterlimit:4;stroke-dasharray:none;stroke-opacity:1" />
      <path
         sodipodi:nodetypes="ccc"
         inkscape:connector-curvature="0"
         id="path4256"
         d="m 337.55473,279.25223 c -5.18386,7.73399 11.98959,20.93078 9.34983,29.65563 -5.32108,12.33422 -14.80775,5.62572 -24.30839,-1.14662"
         style="fill:none;fill-rule:evenodd;stroke:#ffdd55;stroke-width:5;stroke-linecap:butt;stroke-linejoin:miter;stroke-miterlimit:4;stroke-dasharray:none;stroke-opacity:1" />
      <path
         style="fill:none;fill-rule:evenodd;stroke:#ffdd55;stroke-width:5;stroke-linecap:butt;stroke-linejoin:miter;stroke-miterlimit:4;stroke-dasharray:none;stroke-opacity:1"
         d="m 359.13431,276.57207 c 3.41655,-4.30156 5.96703,-18.0345 13.22156,-24.99534 7.33847,-5.51103 13.07107,-5.70476 22.4738,-1.83459 6.57471,4.0514 6.32775,15.94979 10.3196,21.78583"
         id="path4777"
         inkscape:connector-curvature="0"
         sodipodi:nodetypes="cccc" />
      <path
         style="fill:none;fill-rule:evenodd;stroke:#ffdd55;stroke-width:5;stroke-linecap:butt;stroke-linejoin:miter;stroke-miterlimit:4;stroke-dasharray:none;stroke-opacity:1"
         d="m 404.69062,243.7797 c 7.78669,16.78027 1.92523,24.26055 17.42867,27.28962 -8.28398,14.46487 -12.31702,10.60513 -19.03394,8.71433 -7.56022,-3.41053 -10.0038,-9.95061 -17.19933,-12.1542 -7.17813,4.38465 0.58127,11.27993 -16.74069,24.07907"
         id="path4779"
         inkscape:connector-curvature="0"
         sodipodi:nodetypes="ccccc" />
      <path
         style="fill:none;fill-rule:evenodd;stroke:#ffdd55;stroke-width:5;stroke-linecap:butt;stroke-linejoin:miter;stroke-miterlimit:4;stroke-dasharray:none;stroke-opacity:1"
         d="m 422.11929,271.06932 c -1.84619,-19.47908 4.6924,-13.89548 16.28204,-0.9173 4.92811,4.99668 9.741,8.65991 13.47334,-0.18122"
         id="path4781"
         inkscape:connector-curvature="0"
         sodipodi:nodetypes="ccc" />
      <path
         style="fill:none;fill-rule:evenodd;stroke:#ffdd55;stroke-width:5;stroke-linecap:butt;stroke-linejoin:miter;stroke-miterlimit:4;stroke-dasharray:none;stroke-opacity:1"
         d="m 459.49132,281.9864 c -7.71797,10.86313 -15.43595,5.28048 -23.15391,-0.59748 -12.0656,-9.07628 -12.83614,0.67254 -16.28204,5.96244 14.06074,0.20065 11.05004,3.72526 17.88731,8.48501 6.34523,3.35885 15.67107,0.34942 24.07907,8.485"
         id="path4783"
         inkscape:connector-curvature="0"
         sodipodi:nodetypes="ccccc" />
      <path
         style="fill:none;fill-rule:evenodd;stroke:#ffdd55;stroke-width:5;stroke-linecap:butt;stroke-linejoin:miter;stroke-miterlimit:4;stroke-dasharray:none;stroke-opacity:1"
         d="m 420.05537,287.35136 c -5.6329,11.1389 -27.14984,-4.2966 -32.56408,10.3196"
         id="path4785"
         inkscape:connector-curvature="0"
         sodipodi:nodetypes="cc" />
      <path
         style="fill:none;fill-rule:evenodd;stroke:#ffdd55;stroke-width:5;stroke-linecap:butt;stroke-linejoin:miter;stroke-miterlimit:4;stroke-dasharray:none;stroke-opacity:1"
         d="m 388.1267,258.35967 c -11.43254,-3.79439 -18.79971,19.95866 -28.92082,39.53934"
         id="path4787"
         inkscape:connector-curvature="0"
         sodipodi:nodetypes="cc" />
      <path
         style="fill:none;fill-rule:evenodd;stroke:#ffdd55;stroke-width:5;stroke-linecap:butt;stroke-linejoin:miter;stroke-miterlimit:4;stroke-dasharray:none;stroke-opacity:1"
         d="m 473.96789,328.11689 c -20.32094,-11.32867 -9.18101,-5.81728 -12.17547,-15.76916 -6.56947,-7.29152 -16.84759,-12.88716 -19.52136,-15.081"
         id="path4789"
         inkscape:connector-curvature="0"
         sodipodi:nodetypes="ccc" />
      <path
         style="fill:none;fill-rule:evenodd;stroke:#ffdd55;stroke-width:5;stroke-linecap:butt;stroke-linejoin:miter;stroke-miterlimit:4;stroke-dasharray:none;stroke-opacity:1"
         d="m 414.09292,298.35893 c 10.79271,2.71589 13.77615,8.13582 26.83098,13.53015 10.89018,7.60609 18.98209,17.31694 22.70312,27.51894 3.48834,9.4542 -0.50298,18.35636 -3.21054,24.99637"
         id="path4791"
         inkscape:connector-curvature="0"
         sodipodi:nodetypes="cccc" />
      <path
         style="fill:none;fill-rule:evenodd;stroke:#ffdd55;stroke-width:5;stroke-linecap:butt;stroke-linejoin:miter;stroke-miterlimit:4;stroke-dasharray:none;stroke-opacity:1"
         d="m 465.00298,409.12267 c -5.75689,-8.32261 -6.62503,-23.03201 -3.89852,-26.83097 4.43276,-8.51924 7.28724,-7.59411 12.61284,-20.40988"
         id="path4793"
         inkscape:connector-curvature="0"
         sodipodi:nodetypes="ccc" />
      <path
         style="fill:none;fill-rule:evenodd;stroke:#ffdd55;stroke-width:5;stroke-linecap:butt;stroke-linejoin:miter;stroke-miterlimit:4;stroke-dasharray:none;stroke-opacity:1"
         d="m 436.33741,326.33652 c 6.04268,8.48501 9.5081,16.06562 7.10906,26.83097 -4.80074,13.1159 -11.58119,12.86885 -18.80461,9.63163 -9.24323,-4.91299 -30.54065,-13.28303 -38.06787,-2.75189"
         id="path4795"
         inkscape:connector-curvature="0"
         sodipodi:nodetypes="cccc" />
      <path
         style="fill:none;fill-rule:evenodd;stroke:#ffdd55;stroke-width:5;stroke-linecap:butt;stroke-linejoin:miter;stroke-miterlimit:4;stroke-dasharray:none;stroke-opacity:1"
         d="m 427.62307,347.6637 c -3.92298,-18.69519 -10.61795,-16.94675 -30.72948,-16.05271 -10.03605,1.6477 -13.65357,2.03128 -21.5565,9.86095 -6.34275,7.94992 -4.93952,16.35849 -1.37595,24.3084 7.21038,7.18957 18.3985,11.53789 34.16935,12.61284 12.79899,-2.67829 25.04663,-11.91148 30.95881,12.38353"
         id="path4797"
         inkscape:connector-curvature="0"
         sodipodi:nodetypes="cccccc" />
      <path
         style="fill:none;fill-rule:evenodd;stroke:#ffdd55;stroke-width:5;stroke-linecap:butt;stroke-linejoin:miter;stroke-miterlimit:4;stroke-dasharray:none;stroke-opacity:1"
         d="m 427.8524,324.27261 c -8.21012,-6.36258 -15.88557,-14.15954 -29.58286,-7.10907 -9.72726,10.78818 -20.88176,8.73567 -28.20692,8.71434 -6.22308,0.12625 -9.34386,-9.68622 -10.81288,-14.90829"
         id="path4799"
         inkscape:connector-curvature="0"
         sodipodi:nodetypes="cccc" />
      <path
         style="fill:none;fill-rule:evenodd;stroke:#ffdd55;stroke-width:5;stroke-linecap:butt;stroke-linejoin:miter;stroke-miterlimit:4;stroke-dasharray:none;stroke-opacity:1"
         d="m 359.47291,377.47371 c 2.82391,2.00441 5.50756,7.7676 18.38675,8.71651 14.56195,0.053 23.9946,3.26253 22.70313,13.0715 -0.88974,12.31548 -11.4135,15.41932 -16.18163,18.8699"
         id="path4801"
         inkscape:connector-curvature="0"
         sodipodi:nodetypes="cccc" />
      <path
         style="fill:none;fill-rule:evenodd;stroke:#ffdd55;stroke-width:5;stroke-linecap:butt;stroke-linejoin:miter;stroke-miterlimit:4;stroke-dasharray:none;stroke-opacity:1"
         d="m 408.13049,378.39318 c 16.99923,6.41766 16.78775,16.60026 13.0715,25.45503 -6.13149,12.68969 -7.72804,27.0452 -23.82245,31.13667"
         id="path4803"
         inkscape:connector-curvature="0"
         sodipodi:nodetypes="ccc" />
      <path
         style="fill:none;fill-rule:evenodd;stroke:#ffdd55;stroke-width:5;stroke-linecap:butt;stroke-linejoin:miter;stroke-miterlimit:4;stroke-dasharray:none;stroke-opacity:1"
         d="m 417.01444,414.21985 c 9.06109,0.10068 13.92483,4.03143 15.42445,8.20364 1.32585,7.19362 10.64935,13.79473 16.9785,10.22617"
         id="path4805"
         inkscape:connector-curvature="0"
         sodipodi:nodetypes="ccc" />
      <path
         style="fill:none;fill-rule:evenodd;stroke:#ffdd55;stroke-width:5;stroke-linecap:butt;stroke-linejoin:miter;stroke-miterlimit:4;stroke-dasharray:none;stroke-opacity:1"
         d="m 453.53675,366.92697 c 8.37588,8.03101 -3.00085,20.53952 -7.10906,28.2069 -4.91946,5.50391 -14.36492,5.11805 -15.59407,14.90609"
         id="path4807"
         inkscape:connector-curvature="0"
         sodipodi:nodetypes="ccc" />
      <path
         style="fill:none;fill-rule:evenodd;stroke:#ffdd55;stroke-width:5;stroke-linecap:butt;stroke-linejoin:miter;stroke-miterlimit:4;stroke-dasharray:none;stroke-opacity:1"
         d="m 459.87471,394.03056 c -6.46515,4.50268 -8.50995,16.65319 -10.23648,24.26509"
         id="path4809"
         inkscape:connector-curvature="0"
         sodipodi:nodetypes="cc" />
      <path
         style="fill:none;fill-rule:evenodd;stroke:#ffdd55;stroke-width:5;stroke-linecap:butt;stroke-linejoin:miter;stroke-miterlimit:4;stroke-dasharray:none;stroke-opacity:1"
         d="m 380.32976,279.25223 c 5.18386,7.73399 -11.98959,20.93078 -9.34983,29.65563 5.32108,12.33422 14.80775,5.62572 24.30839,-1.14662"
         id="path4811"
         inkscape:connector-curvature="0"
         sodipodi:nodetypes="ccc" />
    </g>
    <circle
       style="display:inline;opacity:0.6;fill:#eeffaa;fill-opacity:1;stroke:#e6e6e6;stroke-width:1;stroke-miterlimit:4;stroke-dasharray:none;stroke-opacity:1;filter:url(#filter4912)"
       id="path4858"
       cx="358"
       cy="339.36221"
       r="207" />
  </g>
</svg>
